<?xml version="1.0" encoding="UTF-8"?>
<svg id="IStock_x5F_corporate_x5F_logo.svg_xA0_Afbeelding" xmlns="http://www.w3.org/2000/svg" version="1.1" viewBox="0 0 1871.18 1274.18">
  <!-- Generator: Adobe Illustrator 29.5.0, SVG Export Plug-In . SVG Version: 2.1.0 Build 137)  -->
  <defs>
    <style>
      .st0 {
        fill: #fff;
      }
    </style>
  </defs>
  <path class="st0" d="M1750.42,688.13c-9.99,9.94-20.3,16.56-34.83,12.18-14.83-4.47-22.11-10.76-39.52-12.19-8.63-.71-43.15,2.99-28.01-16.1,7.64-9.63,19.86-15.86,27.99-27.66,26.91-39.08,6.83-66.37-8.1-103.11-7.46-18.37-13.74-44.44-26.8-59.07-10.97-12.29-36.46-25.2-50.39-10.82-7.39,7.64-26.96,39.85-33.08,50.51-9.31,16.21-15.12,32.74-17.65,51.38-2.82,20.8-.25,69.52-14.62,84.11-12.33,12.53-29.15,4.2-44.13,4.78-18.72.72-56.82,14.43-71.99.73-12.94-11.69,1.34-30.99,7.84-42.7,13.19-23.73,29.78-45.79,38.83-71.68,31.31-89.6-26.4-235.3,26.35-305.26,8.68-11.52,11.68-9.48,22.7-14.59,15.38-7.12,28.7-16.61,45.37-21.74,44.34-13.64,74.17,2.35,115.34,13.6,42.78,11.68,105.57,15.07,96.21,77.34-9.05,60.21-60.24,47.33-99.4,68.26-6.45,3.44-23.88,14.32-17.11,23.28,3.48,4.6,43.82,11.62,53.06,14.75,30.13,10.22,63.87,36.32,74.43,67.22,19.98,73.74,38.33,156.23-22.49,216.78ZM1631.46,267.1c-8.76,1.08-14.27,8.47-18.49,15.46-11.54-13.82-37.87-18.36-44.64,2.2-6.2,18.81,13.82,30.34,27.96,37.69,3.88,2.02,20.03,9.45,23.21,9.06,5.88-.72,23.16-19.19,26.71-24.7,6.47-10.06,10.59-23.04,2.01-33.25-3.81-4.53-10.85-7.19-16.74-6.46Z"/>
  <path class="st0" d="M243.75,209.74c43.25-3.6,87.84,7.67,111.95,46.2,41.64,66.55-9.04,146.85-83.46,153.63-20.44,1.86-54.66-5.69-71.08,3.61-20.06,11.37-20.07,42.16,4.89,46.75,19.2,3.53,34.89.65,54.98,8.27,69.19,26.24,64.9,149.27.33,179.32-41.3,19.23-78.72-3.71-119.85.79-29.14,3.19-54.49,35.89-86.31,11.28-41.11-31.78,2.07-91.99,18.21-125.26,15.85-32.67,32.17-77.42,37.65-113.29,6.81-44.56-6.15-82.88,10.03-127.92,5.04-14.03,25.51-50.53,38.9-56.69,27.31-12.56,52.93-24.12,83.76-26.69ZM229.83,268.94c-17.56,3.66-16.98,25.71-12.17,39.08s21.17,42.14,37.52,38.37c13.4-9.7,32.69-18.05,38.17-34.99,7.91-24.41-17.62-35.54-33.74-18.35-5.7-13.12-12.44-27.72-29.78-24.11ZM201.73,541.06c-21.46-38.2-68.33-20.85-41.45,23.93,5.32,8.86,30.46,34.88,39.83,37.57,4.57,1.31,10.46,1.79,14.76-.47,2.93-1.54,15.12-15.68,17.86-19.19,9.51-12.15,17.54-27.46,15.84-43.49-2.11-19.78-20.62-27.62-35.74-13.86-4.96,4.51-6.69,10.8-11.09,15.51Z"/>
  <path class="st0" d="M527.37,209.49c29.27-1.23,75.06,10.06,89.65,38.3,9.61,18.6,1.87,38.46-19.5,41.46-39.25,5.51-71.98-19.97-111.46,5.59-23.61,15.29-35.22,57.64-22.31,82.48,14.79,28.47,44.79,1.59,63.32-7.13,23.96-11.27,48.9-16.22,74.54-6.75,62.06,22.91,51.37,117.97-20.13,103.85-23.77-4.7-40.74-15.16-67.03-11.08-21.93,3.4-23.55,35.04-34.97,50.84-10.21,14.13-27.47,21.94-34.94,39.14-1.56,3.6-6,14.54-.71,15.31,4.44.64,20.4-6.25,27.2-7.1,31.98-3.99,38.93,10.86,60.52,26.77,13.73,10.11,22.82,2.72,37.11,1.34,57.69-5.56,63.01,55.67,17.34,79.42-20.27,10.54-49.46,13.39-71.46,7.53-26.03-6.93-35.8-28.17-67.65-25.11s-78.58,44.56-107.58,18.95c-35.12-31.02,17.82-83.89,35.46-110.11,38.64-57.44,30.81-82.37,27.62-148.36-4.27-88.39,17.84-190.84,124.98-195.34Z"/>
  <path class="st0" d="M1356.42,215.88c39.54-5.88,64.78,47.85,31.4,74.72-32.36,26.05-81.55-10.32-117.67,23.12-15.56,14.41-24.79,43.1-17.95,63.49,5.21,15.52,21.71,10.51,33.93,11.35,30.69,2.11,63.26,11.44,60.44,49.21-1.35,18.06-17.04,37.39-35.47,39.71-30.52,3.83-63.52-42.78-89.2-3.02-18.69,28.95-23.47,72.53,5.8,96.15,49.4,39.85,86.99-10.45,134.46-5.83,13.02,1.27,20.62,11.44,22,23.87,3.38,30.43-9.43,55.31-35.1,71.05-45.36,27.82-71.81,1.94-117.52,2.93-35.85.77-76.75,20.8-109.44,17.67-48.21-4.61-39.01-66.18-29.94-99.37,13.25-48.54,53.16-77.31,70.9-122.08,13.89-35.04,12.98-75.05,22.79-111.49,10.03-37.26,30.02-66.22,53.92-95.65,8.28-10.19,23.85-20.05,37.12-21.1,8.05-.64,17.02,2.55,25.07,2.71,22.02.43,34.7-14.49,54.45-17.43Z"/>
  <path class="st0" d="M678.64,220.08c1.39-1.48,7.86-3.37,10.09-3.69,28.87-4.15,62.83,16.04,91.48,22.25,46.07,9.99,51.07-6.28,87.38-24.31,32.57-16.17,106.94-33.9,102.42,25.22-3.03,39.68-59.16,39.79-85.98,52.28-15.65,7.29-19.32,21.45-20.93,37.59-3.41,34.25,6.98,63.18-9.11,96.83-16.55,34.61-52.1,53.05-53.95,94.55-.81,18.08,1.13,34.57-1.22,53.19-3.14,24.86-19.6,84.29-41.08,98.3-9.72,6.34-12.45,3.24-22.14,3.31-19.98.14-65.13,8.34-69.68-19.66-5.61-34.55,49.38-79.38,56.8-116.16,4.35-21.6-1.47-43.22,0-65.01,3.24-47.9,49.94-82.13,74.24-119.97,3.69-5.74,18.14-29.58,12.48-35.04-5.06-2.87-11.33-.82-16.95-1.21-10.05-.7-18.45-1.83-27.93-5.34-6.79-2.52-15.87-8.93-22.71-9.71-21.34-2.45-44.19,15.19-65.04,10.12-4.6-1.12-11.01-3.88-11.78-8.88-2.16-13.88,2.83-45.02,5.93-59.47,1.03-4.79,5-22.35,7.68-25.18Z"/>
  <path class="st0" d="M1169.81,210.56c14.94-1.06,36.9,1.22,46.2,14.58,4.62,6.63,5.87,11.48-1.24,16.58-12.6,9.03-26.97,12.31-39.63,24.02-20.07,18.56-28.6,53.27-52.04,64.41-18.92,8.99-47.57,3.93-54.56,30.03-4.44,16.58,4.06,27.44,4.65,41.76.35,8.55-.9,25.55-1.39,34.88-2.09,39.31-13.95,47.05-27.39,79.39-20.12,48.42,3.97,91.8-40.03,133.41-18.66,17.65-60.65,39.96-84.07,21.09-24.15-19.46,1.71-42.24,11.44-60.51,17.26-32.4,5.95-65.86,19.42-100.84,11.97-31.07,56.62-79.39,55.44-109.1-1.12-27.94-24.83-10.95-38.13-6.55-19.17,6.34-58.24,9.16-66.36-14.69-6.95-20.44,5.72-42.46,18.02-58.06,13.19-16.73,24.71-14.13,43.22-17.4,21.25-3.75,46.8-8.58,65.55-19.54,18.32-10.71,29.39-29.78,46.64-41.85,22.6-15.81,66.81-29.65,94.25-31.6Z"/>
  <path class="st0" d="M157.84,1018.97c25.86,28.41,65.23,49.73,106.56,49.73,38.77,0,65.89-23.9,65.89-56.85,0-58.09-83.95-65.2-144.65-100.7-35.52-20.69-63.98-51.69-63.98-102.75,0-80.7,74.33-127.19,149.22-127.19,45.85,0,88.47,10.98,131.1,42.64l-45.2,64.56c-18.11-16.79-48.46-29.68-78.19-29.68-32.89,0-69.7,14.16-69.7,49.03,0,73.02,208.59,50.37,208.59,202.83,0,80.03-71.71,135.57-153.08,135.57-60.68,0-116.88-25.14-163.38-67.81l56.81-59.39h0ZM678.27,1139.76c-10.96,3.85-36.19,6.41-52.33,6.41-50.37,0-87.16-16.79-108.51-45.2-16.14-21.29-23.25-49.03-23.25-93.64v-109.78h-87.16v-71.06h87.16v-87.18h83.97v87.18h103.33v71.06h-103.33v119.44c0,19.44,3.21,31.02,10.35,39.44,8.35,9.71,21.93,15.48,42.6,15.48,12.27,0,28.46-1.89,34.25-3.21l12.92,71.06h0ZM864.45,820.03c94.9,0,166.61,73,166.61,163.43s-71.71,162.71-166.61,162.71-166.63-72.31-166.63-162.71,71.71-163.43,166.63-163.43M864.45,1068.7c49.08,0,82.63-38.12,82.63-85.24s-33.55-85.91-82.63-85.91-82.66,38.74-82.66,85.91,33.56,85.24,82.66,85.24M1362.61,1075.8c-36.86,49.11-83.38,70.37-142.14,70.37-96.85,0-167.91-72.31-167.91-162.71s72.98-163.43,168.57-163.43c54.27,0,102.7,25.23,131.74,62.66l-59.41,52.29c-16.74-21.94-41.93-37.43-72.33-37.43-48.43,0-84.6,38.12-84.6,85.91s35.56,85.24,86.58,85.24c34.2,0,61.33-20.69,74.89-41.33l64.62,48.43h0ZM1551.42,967.31l172.45,172.45h-113.04l-132.43-135.68v135.68h-83.91v-452.1h83.91v240.28l107.85-101.44h118.25l-153.08,140.81h0ZM1727.4,1091.3c0-30.31,24.57-54.88,54.88-54.88s54.88,24.57,54.88,54.88h0c0,30.31-24.57,54.88-54.88,54.88s-54.88-24.57-54.88-54.88"/>
</svg>