<?xml version="1.0" encoding="UTF-8"?>
<svg id="Layer_2_xA0_Afbeelding" xmlns="http://www.w3.org/2000/svg" version="1.1" viewBox="0 0 238.08 238.08">
  <!-- Generator: Adobe Illustrator 29.5.0, SVG Export Plug-In . SVG Version: 2.1.0 Build 137)  -->
  <defs>
    <style>
      .st0 {
        fill: #000101;
      }
    </style>
  </defs>
  <path d="M30.4,15.19c7.95-.42,15.96.67,23.9.64,9.91-.04,20.81,1,30.67,2.2,10.79,1.32,16.35,2.5,24.96,9.34,5.21,4.14,10.53,8.48,8.74,15.94-.77,3.19-1.84,7.59-2.79,10.65-1.46,4.73-4,8.35-4.8,13.68-1.57,10.46,2.91,19.3-7.04,27.27-9.05,7.24-19.48,3.57-29.08,7.61-13.2,5.57-8.17,20.02,2.73,24.8,6.93,3.04,14.58,2.04,21.39,4.74,4.08,1.62,11.28,6.38,13.8,9.95,4.22,5.96,4.84,18.56,2.39,25.34-3.06,8.42-10.83,12.29-13.35,21.43-2.76,10-4.44,25.98-13.61,32.22-6.72,4.57-25.24,5.76-33.21,4.53-3.81-.58-7.65-1.98-11.4-2.51-7.91-1.12-16.11,2.26-23.72-1.22-9.3-4.25-7.16-14.12-7.75-22.48-.24-3.37-.93-6.73-1.19-10.08-.85-10.81,1.69-20.67,3.08-31.23,2.67-20.22.28-40.18,3.71-60.37,1.83-10.77,4.86-18.35,2.01-29.53-3.65-14.34-9.79-22.81-6.57-38.88,2.13-10.65,6.6-13.48,17.14-14.04ZM77.6,63.51c-2.01,2-5.62,1.7-7.21-.65-2.32-3.44,1.5-9.64-1.93-13.19s-11.3-2.77-13.84,1.28c-2.9,4.64.5,11.46,2.88,15.69,3.12,5.53,7.46,10.46,9.39,16.64,1.99-1.52,4.17-2.77,6.21-4.22,5.39-3.85,17.24-12.11,18.8-18.63.21-.87-.39-2.67-1.05-3.18-1.12-.86-5.77-.65-7.18-.26-4.84,1.34-3.7,4.16-6.08,6.52ZM63.72,149.09c-3.95.31-1.99,5.88-1.86,8.46s-.66,5.09-3.36,5.78c-5.94,1.52-5.85-5.37-8.29-8.03-1.75-1.9-8.54-1.68-10.14.38-1.68,2.17-1.63,8.78-.47,11.2,1.93,4.03,8.6,9.36,11.7,13.25,2.8,3.53,4.89,7.47,7.12,11.37.77-.04,1.49-.3,2.17-.65,2.48-1.26,9.4-11.27,11.11-14.08,3.45-5.68,6.97-17.49,1.91-23.04-1.65-1.82-7.45-4.82-9.88-4.63Z"/>
  <path class="st0" d="M130.79,170.6c10.27,12.67,25.9,22.17,42.31,22.17,15.39,0,26.16-10.66,26.16-25.35,0-25.9-33.33-29.07-57.42-44.9-14.1-9.23-25.4-23.05-25.4-45.81,0-35.98,29.51-56.71,59.24-56.71,18.2,0,35.12,4.9,52.05,19.01l-17.94,28.79c-7.19-7.49-19.24-13.23-31.04-13.23-13.06,0-27.67,6.31-27.67,21.86,0,32.56,82.81,22.46,82.81,90.44,0,35.68-28.47,60.45-60.77,60.45-24.09,0-46.4-11.21-64.86-30.24l22.55-26.48h0Z"/>
</svg>